<?xml version="1.0" encoding="utf-8"?>
<!-- Generator: Adobe Illustrator 17.0.0, SVG Export Plug-In . SVG Version: 6.00 Build 0)  -->
<!DOCTYPE svg PUBLIC "-//W3C//DTD SVG 1.1//EN" "http://www.w3.org/Graphics/SVG/1.1/DTD/svg11.dtd">
<svg version="1.1" xmlns="http://www.w3.org/2000/svg" xmlns:xlink="http://www.w3.org/1999/xlink" x="0px" y="0px"
	 width="204.667px" height="108px" viewBox="0 0 204.667 108" enable-background="new 0 0 204.667 108" xml:space="preserve">
<g id="Layer_1">
</g>
<g id="Layer_2">
</g>
<g id="Layer_3">
	<g>
		<path d="M74.829,22.315l-11.656,7.462H37.626V99.5h-8.225V29.778H3.855v-7.462H74.829z"/>
		<path d="M82.926,22.315l0.129,51.965c0,3.159,0.58,5.992,1.743,8.497c1.161,2.506,2.677,4.622,4.548,6.346
			c1.87,1.725,3.977,3.05,6.318,3.976c2.343,0.926,4.693,1.389,7.054,1.389c2.542,0,5.066-0.426,7.572-1.28
			c2.505-0.853,4.757-2.115,6.754-3.786c1.997-1.67,3.622-3.749,4.875-6.237c1.253-2.487,1.879-5.383,1.879-8.688V22.315l8.28,4.685
			v46.953c0,4.503-0.872,8.48-2.615,11.929c-1.743,3.45-4.003,6.346-6.781,8.688s-5.91,4.122-9.396,5.338
			c-3.485,1.216-6.972,1.825-10.458,1.825c-3.342,0-6.673-0.599-9.995-1.798c-3.323-1.198-6.318-2.968-8.988-5.311
			c-2.669-2.342-4.839-5.256-6.509-8.743c-1.671-3.486-2.506-7.535-2.506-12.147V27.583L82.926,22.315z"/>
		<path d="M171.788,60.88c4.103,6.319,8.233,12.765,12.392,19.337c4.157,6.573,8.288,13.001,12.392,19.283h-9.368l-19.991-31.484
			l-20.1,31.484h-9.369l24.784-38.729l-24.565-38.456h9.15l19.991,31.32l20.1-31.32h9.368L171.788,60.88z"/>
	</g>
	<path d="M106.621,35.958c0,1.749-1.418,3.167-3.167,3.167l0,0c-1.749,0-3.167-1.418-3.167-3.167v-1
		c0-1.749,1.418-3.167,3.167-3.167l0,0c1.749,0,3.167,1.418,3.167,3.167V35.958z"/>
	<path d="M106.622,63.624c0,1.75-1.418,3.168-3.168,3.168l0,0c-1.75,0-3.168-1.418-3.168-3.168v-0.997
		c0-1.75,1.418-3.168,3.168-3.168l0,0c1.75,0,3.168,1.418,3.168,3.168V63.624z"/>
	<polygon fill="#465CA9" points="116.256,17.849 105.036,10.445 116.28,3.031 	"/>
	<polygon fill="#465CA9" points="90.638,17.849 101.865,10.434 90.628,3.031 	"/>
</g>
<g id="Layer_4">
	<text transform="matrix(1 0 0 1 -6.4145 140.0062)" fill="#475CAA" font-family="'Dolphian'" font-size="31.9891">TuxedoJS.org</text>
</g>
</svg>
